<svg width="36" height="36" viewBox="0 0 36 36" fill="none" xmlns="http://www.w3.org/2000/svg">
<path d="M18 26.9583C13.0584 26.9583 9.04169 22.9417 9.04169 18C9.04169 13.0583 13.0584 9.04166 18 9.04166C22.9417 9.04166 26.9584 13.0583 26.9584 18C26.9584 22.9417 22.9417 26.9583 18 26.9583ZM18 10.2917C13.75 10.2917 10.2917 13.75 10.2917 18C10.2917 22.25 13.75 25.7083 18 25.7083C22.25 25.7083 25.7084 22.25 25.7084 18C25.7084 13.75 22.25 10.2917 18 10.2917Z" fill="white"/>
<path d="M18 19.4583C17.6583 19.4583 17.375 19.175 17.375 18.8333V14.6667C17.375 14.325 17.6583 14.0417 18 14.0417C18.3417 14.0417 18.625 14.325 18.625 14.6667V18.8333C18.625 19.175 18.3417 19.4583 18 19.4583Z" fill="white"/>
<path d="M18 22.1667C17.8917 22.1667 17.7834 22.1417 17.6834 22.1C17.5834 22.0583 17.4917 22 17.4084 21.925C17.3334 21.8417 17.275 21.7583 17.2334 21.65C17.1917 21.55 17.1667 21.4417 17.1667 21.3333C17.1667 21.225 17.1917 21.1167 17.2334 21.0167C17.275 20.9167 17.3334 20.825 17.4084 20.7417C17.4917 20.6667 17.5834 20.6083 17.6834 20.5667C17.8834 20.4833 18.1167 20.4833 18.3167 20.5667C18.4167 20.6083 18.5084 20.6667 18.5917 20.7417C18.6667 20.825 18.725 20.9167 18.7667 21.0167C18.8084 21.1167 18.8334 21.225 18.8334 21.3333C18.8334 21.4417 18.8084 21.55 18.7667 21.65C18.725 21.7583 18.6667 21.8417 18.5917 21.925C18.5084 22 18.4167 22.0583 18.3167 22.1C18.2167 22.1417 18.1084 22.1667 18 22.1667Z" fill="white"/>
</svg>
