<svg width="17" height="22" viewBox="0 0 17 22" fill="none" xmlns="http://www.w3.org/2000/svg">
<path fill-rule="evenodd" clip-rule="evenodd" d="M7.69633 17.6316L2.32373 20.881C1.89477 21.1271 1.3663 20.9529 1.12982 20.4874V20.4874C1.0614 20.3432 1.02449 20.1834 1.02203 20.0206V5.62244C1.02203 2.87644 2.7217 1.77805 5.16756 1.77805H10.9133C13.2845 1.77805 15.0588 2.80322 15.0588 5.43937V20.0206C15.0588 20.2804 14.9653 20.5295 14.7989 20.7132C14.6326 20.8968 14.4069 21 14.1716 21C14.0216 20.9974 13.874 20.9567 13.7405 20.881L8.33474 17.6316C8.13554 17.5128 7.89553 17.5128 7.69633 17.6316Z" stroke="#67686D" stroke-width="2" stroke-linecap="round" stroke-linejoin="round"/>
</svg>
